PathFileType	4	(X/Y/Z)	PS_ngait_og_ss8.trc	
DataRate	CameraRate	NumFrames	NumMarkers	Units	OrigDataRate	OrigDataStartFrame	OrigNumFrames	
120.00	120.00	5	39	mm	120.00	426	129	
Frame#	Time	Sternum			Neck			RShoulder			LShoulder			Xiphoid			Thoracic			RAsis			LAsis			RPsis			LPsis			LThighSuperior			LThighInferior			LThighLateral			LShankSuperior			LShankInferior			LShankLateral			RThighSuperior			RThighInferior			RThighLateral			RShankSuperior			RShankInferior			RShankLateral			RHeel			RToe			RMidfootMedial			RMidfootLateral			RHindfoot			RMidfootSuperior			RToeMedial			RToeLateral			LHeel			LToe			LMidfootMedial			LMidfootLateral			LHindfoot			LMidfootSuperior			LToeMedial			LToeLateral			Sacral			
		X1	Y1	Z1	X2	Y2	Z2	X3	Y3	Z3	X4	Y4	Z4	X5	Y5	Z5	X6	Y6	Z6	X7	Y7	Z7	X8	Y8	Z8	X9	Y9	Z9	X10	Y10	Z10	X11	Y11	Z11	X12	Y12	Z12	X13	Y13	Z13	X14	Y14	Z14	X15	Y15	Z15	X16	Y16	Z16	X17	Y17	Z17	X18	Y18	Z18	X19	Y19	Z19	X20	Y20	Z20	X21	Y21	Z21	X22	Y22	Z22	X23	Y23	Z23	X24	Y24	Z24	X25	Y25	Z25	X26	Y26	Z26	X27	Y27	Z27	X28	Y28	Z28	X29	Y29	Z29	X30	Y30	Z30	X31	Y31	Z31	X32	Y32	Z32	X33	Y33	Z33	X34	Y34	Z34	X35	Y35	Z35	X36	Y36	Z36	X37	Y37	Z37	X38	Y38	Z38	X39	Y39	Z39	

49	0.400	490.85071	1451.13782	90.45960	329.25061	1553.13831	84.37569	368.72128	1540.19434	249.92041	365.25772	1538.50806	-52.80545	521.58948	1292.77063	102.26953	245.38452	1336.82483	95.78635	426.36572	1024.85596	243.33501	444.90106	1026.39563	-31.65370	242.80652	1057.94324	152.21469	242.97794	1050.01550	47.94656	371.62915	841.51764	-101.78018	370.02185	617.48419	-43.32931	452.76804	716.49017	1.37831	345.16171	378.47247	-43.01585	292.43152	184.09163	-6.82829	353.36136	272.18588	28.00465	414.72211	839.62103	297.12347	504.29541	620.58685	283.79010	531.84424	789.44916	229.95161	501.52588	465.58276	294.14767	501.35413	211.62730	258.68246	558.83569	339.12833	220.67065	422.97446	89.90417	198.84172	735.99463	87.53193	230.05864	644.28729	63.30831	173.72836	632.59607	59.51998	288.43060	582.26709	58.88161	276.42126	600.15686	121.89594	221.66685	686.98578	69.11333	179.61171	681.82391	69.63172	282.96353	191.56526	65.04578	50.91577	502.94382	59.39524	8.91957	407.85297	36.38266	71.69889	397.46658	32.34942	-45.79805	343.09293	30.35398	-31.41846	379.29181	96.13583	23.07083	450.00592	37.14802	63.22007	441.83975	42.10822	-40.35672	242.89223	1053.97937	100.08062 
50	0.408	499.37814	1450.27026	90.81764	337.89737	1552.41541	84.46634	377.18484	1539.54199	250.11153	373.86707	1537.71594	-52.59740	530.09296	1291.98389	102.49120	253.66541	1336.20984	96.11125	434.73300	1023.70105	243.18529	452.56042	1025.84631	-31.61004	250.95906	1057.18921	152.64418	250.86104	1049.55603	48.53049	378.53326	840.85681	-102.93465	374.28500	617.04114	-43.37759	457.83829	714.88879	0.73978	347.32864	378.05841	-43.13999	293.37491	183.86459	-6.69168	354.65982	271.67099	28.24163	424.28320	838.88129	298.13550	510.80331	618.92212	282.20267	538.73041	787.60577	228.35258	511.82950	463.06262	292.59790	524.45532	209.19269	258.90161	575.17108	338.97070	220.05634	453.11484	83.06714	198.50430	764.78235	95.92308	231.23679	674.56183	67.27759	174.71521	662.82825	62.91811	289.47281	612.65839	59.77641	277.03207	627.44995	123.61576	222.51163	716.85529	75.14152	180.66872	711.42029	75.39153	284.00754	191.58835	65.12625	50.98336	503.06119	59.11034	8.87741	407.81982	36.33043	71.80536	397.35883	32.49182	-45.94671	340.89999	33.08375	-32.99573	379.38870	96.08156	23.08576	450.09607	36.98569	63.20142	441.84781	42.10475	-40.36114	250.91005	1053.37256	100.58733 
51	0.417	507.93454	1449.34680	91.20177	346.53186	1551.62927	84.64217	385.67233	1538.84106	250.34607	382.52924	1536.82654	-52.19815	538.50336	1291.00562	102.78077	262.04950	1335.50940	96.56406	443.39471	1022.58710	243.18083	460.34656	1025.20288	-31.56715	259.34494	1056.35339	153.30655	258.88965	1048.85828	49.19571	385.47806	840.19434	-103.97698	378.68063	616.60938	-43.34762	463.14847	713.69012	0.68666	349.71143	377.71820	-43.10093	294.53561	183.78561	-6.40547	356.21964	271.27298	28.40558	433.71387	837.92944	299.16443	516.77460	616.82880	280.48752	545.43256	785.39990	226.95140	521.60706	460.63675	291.28238	546.79419	207.58015	259.19986	591.91254	339.30405	220.18689	481.85287	77.19353	198.89702	792.71124	105.00309	232.81279	704.44232	71.56369	176.40585	692.03931	66.78484	290.23495	641.88947	62.25948	278.62595	654.13947	125.47076	223.74940	746.02570	81.55520	182.24939	740.39270	81.92725	285.57724	191.63844	65.32819	51.05270	503.23755	58.80664	8.87095	407.80997	36.26603	71.82863	397.44061	32.39843	-46.01447	342.40921	31.31583	-31.99715	379.49048	95.86456	22.99389	450.19186	36.83859	63.17991	442.00839	41.92188	-40.38954	259.11728	1052.60583	101.25112 
52	0.425	516.52258	1448.39294	91.62898	355.18439	1550.70398	84.85489	394.27481	1538.01611	250.65715	391.18970	1535.80225	-51.75031	547.01373	1290.09094	103.35487	270.44492	1334.64587	97.15481	452.26636	1021.59552	243.18045	468.01990	1024.55078	-31.67682	267.80417	1055.34570	154.14835	266.88440	1048.04919	49.93052	392.46613	839.53326	-104.88851	383.20221	616.04150	-43.38007	468.75482	712.55267	0.51060	352.49237	377.54999	-42.99028	295.14520	184.02937	-6.40973	357.91168	270.71817	28.51196	442.89124	836.76434	300.12390	522.08691	614.35944	278.59705	552.07104	782.80292	225.85616	531.29089	458.15784	289.67215	568.29327	206.46440	259.22418	608.20642	339.99530	220.46161	510.11615	72.59866	199.22293	819.10913	114.59052	234.46300	732.60883	77.16537	177.70013	719.99298	70.93396	291.02374	670.60114	64.46548	279.29959	679.70630	128.25479	225.33408	773.69116	89.18039	183.69354	767.93597	88.63834	287.01392	191.78947	65.47175	51.05929	503.34973	58.46171	8.69608	408.03516	36.26427	71.59280	397.56824	32.24058	-46.00537	343.23199	30.11980	-31.26795	379.61804	95.70145	23.01199	450.26038	36.69117	63.04188	442.07620	41.64828	-40.53364	267.34427	1051.69739	102.03944 
53	0.433	525.04321	1447.28674	92.06930	363.83630	1549.69580	85.20187	402.83926	1537.07581	251.17528	399.74649	1534.88818	-51.24340	555.56018	1289.02551	103.65448	278.87094	1333.64355	97.87656	461.34113	1020.50714	243.21005	475.81589	1023.78833	-31.75642	276.43497	1054.17932	155.07249	275.03363	1047.09412	50.77331	399.50070	838.87616	-105.65117	387.98141	615.36194	-43.25518	474.63303	711.34827	0.61489	355.11414	377.85077	-43.01827	296.49008	183.92201	-6.15258	359.76563	270.42413	28.70570	451.70139	835.39093	300.92862	526.98914	611.66180	276.40833	558.55090	779.82397	224.98550	540.99847	455.91360	287.96750	588.91003	206.05724	259.37207	623.62817	340.99030	220.23071	536.97040	69.07095	199.96443	843.78571	124.29275	236.15327	759.27911	83.42987	178.75584	746.84558	77.28268	292.91486	697.57080	67.46261	280.16599	704.03412	132.47893	225.87259	799.81201	97.05276	185.06216	793.23993	96.43285	288.33337	191.50490	66.34386	52.21765	503.63666	58.03394	8.75295	407.96634	36.42716	71.55069	397.59790	32.15162	-46.09590	343.14316	30.24153	-31.21898	379.74420	95.57738	23.00719	450.31702	36.64967	63.02662	442.39276	41.41117	-40.57828	275.73431	1050.63672	102.92290 
